<?xml version="1.0" encoding="UTF-8"?>
<svg xmlns="http://www.w3.org/2000/svg" xmlns:xlink="http://www.w3.org/1999/xlink" width="193pt" height="193pt" viewBox="0 0 193 193" version="1.1">
<g id="surface1">
<path style=" stroke:none;fill-rule:evenodd;fill:rgb(100%,100%,100%);fill-opacity:1;" d="M 0 0.242188 L 192.757813 0.242188 L 192.757813 193 L 0 193 L 0 0.242188 "/>
<path style=" stroke:none;fill-rule:nonzero;fill:rgb(13.699341%,12.199402%,12.5%);fill-opacity:1;" d="M 22.625 169.722656 L 170.339844 169.722656 L 170.339844 22.8125 L 22.625 22.8125 Z M 16.257813 16.535156 L 176.496094 16.535156 L 176.496094 176.710938 L 16.257813 176.710938 L 16.257813 16.535156 "/>
<path style=" stroke:none;fill-rule:nonzero;fill:rgb(13.699341%,12.199402%,12.5%);fill-opacity:1;" d="M 91.515625 150.652344 C 94.996094 151.398438 98.550781 151.777344 102.113281 151.777344 C 114.667969 151.777344 126.773438 147.105469 136.074219 138.671875 L 134.773438 132.390625 C 126.253906 141.320313 114.453125 146.367188 102.113281 146.367188 C 100.082031 146.367188 98.054688 146.230469 96.042969 145.957031 Z M 118.71875 121.640625 C 123.523438 116.679688 127.261719 110.785156 129.695313 104.324219 L 142.738281 167.265625 L 74.507813 167.265625 L 118.71875 121.640625 "/>
<path style=" stroke:none;fill-rule:nonzero;fill:rgb(13.699341%,12.199402%,12.5%);fill-opacity:1;" d="M 151.886719 110.039063 L 161.800781 54.023438 L 156.308594 54.019531 L 150.519531 86.722656 C 146.308594 72.703125 136.222656 61.203125 122.875 55.191406 C 125.226563 58.199219 127.230469 61.460938 128.859375 64.910156 C 140.421875 73.414063 147.246094 86.90625 147.246094 101.253906 C 147.246094 108.527344 145.484375 115.695313 142.117188 122.144531 L 143.726563 129.925781 C 147.84375 123.957031 150.625 117.175781 151.886719 110.039063 Z M 131.882813 76.320313 C 129.132813 63.027344 121.136719 51.410156 109.703125 44.085938 L 167.882813 44.085938 L 167.882813 167.265625 L 150.726563 167.265625 L 131.882813 76.320313 "/>
<path style=" stroke:none;fill-rule:nonzero;fill:rgb(13.699341%,12.199402%,12.5%);fill-opacity:1;" d="M 85.90625 143.359375 C 82.078125 141.890625 78.472656 139.902344 75.179688 137.457031 C 71.402344 136.914063 67.695313 135.949219 64.128906 134.585938 C 69.019531 140.152344 75.074219 144.578125 81.867188 147.546875 Z M 82.46875 36.105469 C 54.613281 36.105469 32.007813 58.703125 32.007813 86.546875 C 32.007813 90.664063 32.511719 94.769531 33.507813 98.765625 L 44.285156 141.914063 L 51.324219 138.109375 L 47.539063 122.953125 C 56.9375 131.960938 69.453125 136.988281 82.46875 136.988281 C 86.550781 136.988281 90.613281 136.496094 94.574219 135.515625 L 63.953125 167.265625 L 25.085938 167.265625 L 25.085938 25.269531 L 167.882813 25.269531 L 167.882813 36.105469 L 82.46875 36.105469 "/>
<path style=" stroke:none;fill-rule:nonzero;fill:rgb(13.699341%,12.199402%,12.5%);fill-opacity:1;" d="M 59.34375 74.328125 L 65.894531 74.328125 C 74.410156 62.882813 87.84375 56.136719 102.113281 56.136719 C 105.472656 56.136719 108.820313 56.511719 112.09375 57.253906 C 109.589844 54.742188 106.777344 52.558594 103.722656 50.757813 L 103.726563 50.757813 C 103.1875 50.738281 102.648438 50.730469 102.113281 50.730469 C 84.746094 50.730469 68.597656 59.644531 59.34375 74.328125 Z M 54.28125 117.578125 C 56.898438 119.96875 59.8125 122.019531 62.949219 123.675781 C 59.035156 116.847656 56.980469 109.121094 56.980469 101.253906 C 56.980469 100.589844 56.992188 99.921875 57.023438 99.257813 L 57.023438 99.261719 L 51.609375 99.257813 C 51.582031 99.921875 51.570313 100.589844 51.570313 101.253906 C 51.570313 106.808594 52.484375 112.324219 54.28125 117.578125 Z M 125.160156 86.796875 C 125.160156 110.339844 106.042969 129.449219 82.488281 129.449219 C 58.9375 129.449219 39.820313 110.339844 39.820313 86.796875 C 39.820313 63.253906 58.9375 44.144531 82.488281 44.144531 C 106.042969 44.144531 125.160156 63.253906 125.160156 86.796875 "/>
<path style=" stroke:none;fill-rule:nonzero;fill:rgb(100%,100%,100%);fill-opacity:1;" d="M 64.808594 79.398438 C 64.53125 79.398438 64.199219 79.34375 63.921875 79.453125 C 63.972656 81.449219 63.808594 83.445313 63.972656 85.441406 C 66.523438 85.386719 69.074219 85.550781 71.625 85.332031 C 71.679688 85.773438 71.570313 86.164063 71.679688 86.605469 C 69.074219 86.441406 66.523438 86.441406 63.921875 86.550781 C 63.972656 88.878906 63.808594 91.203125 63.972656 93.535156 C 66.800781 93.535156 69.628906 93.535156 72.457031 93.257813 C 72.347656 93.703125 72.347656 94.199219 72.457031 94.644531 C 68.855469 94.644531 65.253906 94.644531 61.648438 94.644531 C 61.648438 89.210938 61.648438 83.722656 61.648438 78.292969 C 65.195313 78.347656 68.742188 78.179688 72.289063 78.347656 C 72.179688 78.789063 72.234375 79.289063 72.289063 79.734375 C 69.796875 79.289063 67.304688 79.398438 64.808594 79.398438 "/>
<path style=" stroke:none;fill-rule:nonzero;fill:rgb(100%,100%,100%);fill-opacity:1;" d="M 83.375 85.164063 C 84.101563 84.78125 84.707031 84.222656 85.039063 83.445313 C 85.484375 82.226563 85.316406 80.785156 84.207031 79.898438 C 83.484375 79.34375 82.601563 79.179688 81.765625 79.179688 C 80.273438 79.066406 78.773438 79.011719 77.28125 79.230469 C 77.335938 81.449219 77.167969 83.613281 77.335938 85.828125 C 79.328125 85.773438 81.492188 86.164063 83.375 85.164063 Z M 77.945313 86.660156 C 77.777344 86.660156 77.445313 86.605469 77.445313 86.71875 C 77.28125 89.378906 77.390625 92.035156 77.390625 94.699219 C 76.613281 94.644531 75.894531 94.644531 75.117188 94.699219 C 75.117188 89.210938 75.117188 83.78125 75.117188 78.292969 C 78.164063 78.402344 81.101563 78.070313 84.207031 78.515625 C 85.371094 78.679688 86.589844 79.066406 87.253906 80.121094 C 88.03125 81.339844 87.867188 82.839844 87.089844 84.058594 C 85.925781 85.660156 84.097656 86.105469 82.324219 86.550781 C 84.707031 89.324219 87.089844 92.035156 89.527344 94.699219 C 88.53125 94.644531 87.476563 94.644531 86.480469 94.699219 C 84.261719 91.925781 81.933594 89.210938 79.496094 86.660156 C 78.996094 86.660156 78.441406 86.660156 77.945313 86.660156 "/>
<path style=" stroke:none;fill-rule:nonzero;fill:rgb(100%,100%,100%);fill-opacity:1;" d="M 93.296875 82.28125 C 93.101563 82.085938 92.855469 81.617188 92.523438 81.839844 C 92.523438 86.105469 92.523438 90.429688 92.523438 94.699219 C 92.023438 94.644531 91.582031 94.585938 91.082031 94.699219 C 91.082031 89.210938 91.082031 83.78125 91.082031 78.292969 C 91.410156 78.292969 91.800781 78.179688 91.96875 78.347656 C 96.511719 82.394531 100.335938 86.496094 104.71875 90.652344 C 104.773438 90.652344 104.992188 90.707031 104.992188 90.597656 C 105.046875 86.496094 104.992188 82.445313 104.992188 78.347656 C 105.492188 78.402344 105.9375 78.402344 106.433594 78.347656 C 106.433594 83.78125 106.601563 89.265625 106.324219 94.699219 C 106.324219 94.699219 105.828125 94.808594 105.710938 94.644531 C 101.5 90.429688 97.511719 86.496094 93.296875 82.28125 "/>
<path style=" stroke:none;fill-rule:nonzero;fill:rgb(100%,100%,100%);fill-opacity:1;" d="M 57.820313 80.121094 C 54.832031 77.984375 50.617188 78.347656 48.179688 81.117188 C 46.40625 83.171875 46.019531 85.886719 46.570313 88.546875 C 47.015625 90.929688 48.566406 92.816406 50.785156 93.644531 C 53.613281 94.699219 56.769531 93.921875 59.097656 92.152344 C 59.097656 92.648438 58.988281 93.148438 58.988281 93.644531 C 56.878906 94.808594 54.441406 95.085938 52.058594 94.976563 C 49.234375 94.808594 46.40625 93.589844 44.90625 91.039063 C 43.414063 88.378906 43.246094 85.109375 44.796875 82.394531 C 47.734375 77.292969 54.605469 77.070313 59.488281 79.066406 C 59.210938 79.621094 59.097656 80.289063 58.933594 80.898438 C 58.488281 80.785156 58.210938 80.398438 57.820313 80.121094 "/>
</g>
</svg>
